<?xml version="1.0" encoding="utf-8"?>
<svg contentScriptType="text/ecmascript" xmlns:xlink="http://www.w3.org/1999/xlink" zoomAndPan="magnify" contentStyleType="text/css" viewBox="-4.450000762939453 -4.239998817443848 718.5599996566773 383.0499961853028" xmlns:cacoo="http://cacoo.com/" preserveAspectRatio="xMidYMin meet" xmlns="http://www.w3.org/2000/svg" version="1.1"><defs><marker refX="14.0" refY="7.0" markerUnits="userSpaceOnUse" orient="auto" id="id1" markerHeight="14.0" viewBox="0 0 14.0 14.0" preserveAspectRatio="xMidYMid meet" markerWidth="14.0" overflow="visible"><path fill="#000000" d="M7.0 3.5 L14.0 7.0 L7.0 10.5z" stroke-width="2.0" stroke-linejoin="round" stroke-linecap="round" stroke="#000000"/></marker><marker refX="14.0" refY="7.0" markerUnits="userSpaceOnUse" orient="auto" id="id9" markerHeight="14.0" viewBox="0 0 14.0 14.0" preserveAspectRatio="xMidYMid meet" markerWidth="14.0" overflow="visible"><path fill="#000000" d="M7.0 3.5 L14.0 7.0 L7.0 10.5z" stroke-width="2.0" stroke-linejoin="round" stroke-linecap="round" stroke="#000000"/></marker><marker refX="14.0" refY="7.0" markerUnits="userSpaceOnUse" orient="auto" id="id11" markerHeight="14.0" viewBox="0 0 14.0 14.0" preserveAspectRatio="xMidYMid meet" markerWidth="14.0" overflow="visible"><path fill="#000000" d="M7.0 3.5 L14.0 7.0 L7.0 10.5z" stroke-width="2.0" stroke-linejoin="round" stroke-linecap="round" stroke="#000000"/></marker><marker refX="14.0" refY="7.0" markerUnits="userSpaceOnUse" orient="auto" id="id12" markerHeight="14.0" viewBox="0 0 14.0 14.0" preserveAspectRatio="xMidYMid meet" markerWidth="14.0" overflow="visible"><path fill="#000000" d="M7.0 3.5 L14.0 7.0 L7.0 10.5z" stroke-width="2.0" stroke-linejoin="round" stroke-linecap="round" stroke="#000000"/></marker><marker refX="14.0" refY="7.0" markerUnits="userSpaceOnUse" orient="auto" id="id13" markerHeight="14.0" viewBox="0 0 14.0 14.0" preserveAspectRatio="xMidYMid meet" markerWidth="14.0" overflow="visible"><path fill="#000000" d="M7.0 3.5 L14.0 7.0 L7.0 10.5z" stroke-width="2.0" stroke-linejoin="round" stroke-linecap="round" stroke="#000000"/></marker><marker refX="14.0" refY="7.0" markerUnits="userSpaceOnUse" orient="auto" id="id17" markerHeight="14.0" viewBox="0 0 14.0 14.0" preserveAspectRatio="xMidYMid meet" markerWidth="14.0" overflow="visible"><path fill="#000000" d="M7.0 3.5 L14.0 7.0 L7.0 10.5z" stroke-width="2.0" stroke-linejoin="round" stroke-linecap="round" stroke="#000000"/></marker><marker refX="14.0" refY="7.0" markerUnits="userSpaceOnUse" orient="auto" id="id18" markerHeight="14.0" viewBox="0 0 14.0 14.0" preserveAspectRatio="xMidYMid meet" markerWidth="14.0" overflow="visible"><path fill="#000000" d="M7.0 3.5 L14.0 7.0 L7.0 10.5z" stroke-width="2.0" stroke-linejoin="round" stroke-linecap="round" stroke="#000000"/></marker></defs><g><g transform="translate(287.7000000000001 138.05000000000007)"><path fill="#ffffff" fill-opacity="1.0" d="M259.0499999999996 97.99999999999999 Q259.0499999999996 102.99999999999999 254.0499999999996 102.99999999999999 L5.0 102.99999999999999 Q0.0 102.99999999999999 0.0 97.99999999999999 L0.0 5.0 Q0.0 0.0 5.0 0.0 L254.0499999999996 0.0 Q259.0499999999996 0.0 259.0499999999996 5.0 L259.0499999999996 97.99999999999999 L259.0499999999996 97.99999999999999z" stroke-width="1.0" stroke-linejoin="round" stroke="#000000"/><g transform="translate(1.0 1.0)"><defs><clipPath id="id0"><path d="M0 0 L257.0499999999999 0 L257.0499999999999 101.0 L0 101.0z"/></clipPath></defs><text font-size="12" clip-path="url(#id0)" text-decoration="none" fill="#000000" font-family="Arial,Arial" font-style="normal" font-weight="normal"/></g></g><g transform="translate(156.2000000000001 10.760001182556152)"><path fill="#9d5025" fill-opacity="1.0" d="M9.119998931884766 2.479999542236328 L43.87999725341797 2.479999542236328 Q53.0 2.479999542236328 53.0 11.600000381469727 L53.0 46.359994888305664 Q53.0 55.479997634887695 43.87999725341797 55.479997634887695 L9.119998931884766 55.479997634887695 Q0.0 55.479997634887695 0.0 46.359994888305664 L0.0 11.600000381469727 Q0.0 2.479999542236328 9.119998931884766 2.479999542236328z" stroke="none"/><path fill="#f58536" fill-opacity="1.0" d="M9.119998931884766 0.0 L43.87999725341797 0.0 Q53.0 0.0 53.0 9.120000839233398 L53.0 43.8799991607666 Q53.0 53.00000190734863 43.87999725341797 53.00000190734863 L9.119998931884766 53.00000190734863 Q0.0 53.00000190734863 0.0 43.8799991607666 L0.0 9.120000839233398 Q0.0 0.0 9.119998931884766 0.0z" stroke="none"/></g><g transform="translate(253.7000000000001 157.8199985504151)"><path fill="#9d5025" fill-opacity="1.0" d="M3.6399993896484375 4.239999771118164 L0.0 6.049999237060547 L0.0 57.40999984741211 L3.6399993896484375 59.21999740600586 L17.979999542236328 32.79999923706055 L3.6399993896484375 4.239999771118164 L3.6399993896484375 4.239999771118164z" stroke="none"/><path fill="#9d5025" fill-opacity="1.0" d="M14.719999313354492 13.510000228881836 L20.080001831054688 5.920000076293945 L44.099998474121094 16.599998474121094 L38.5 17.48999786376953 L14.719999313354492 13.510000228881836 L14.719999313354492 13.510000228881836z" stroke="none"/><path fill="#9d5025" fill-opacity="1.0" d="M10.559999465942383 50.499996185302734 L16.459999084472656 58.6099967956543 L44.099998474121094 46.679996490478516 L38.7599983215332 45.85000228881836 L10.559999465942383 50.499996185302734 L10.559999465942383 50.499996185302734z" stroke="none"/><path fill="#f58536" fill-opacity="1.0" d="M12.120000839233398 57.22999954223633 L3.6399993896484375 59.21999740600586 L3.6399993896484375 4.239999771118164 L12.120000839233398 6.170000076293945 L12.120000839233398 57.22999954223633 L12.120000839233398 57.22999954223633z" stroke="none"/><path fill="#9d5025" fill-opacity="1.0" d="M7.659999847412109 2.229999542236328 L12.120000839233398 0.0 L20.520000457763672 35.290000915527344 L12.120000839233398 63.46000289916992 L7.659999847412109 61.22999954223633 L7.659999847412109 2.229999542236328 L7.659999847412109 2.229999542236328z" stroke="none"/><path fill="#9d5025" fill-opacity="1.0" d="M38.459999084472656 45.810001373291016 L44.099998474121094 46.679996490478516 L49.26000213623047 32.310001373291016 L44.099998474121094 16.599998474121094 L38.459999084472656 17.48999786376953 L38.459999084472656 45.810001373291016 L38.459999084472656 45.810001373291016z" stroke="none"/><path fill="#f58536" fill-opacity="1.0" d="M20.799999237060547 61.0099983215332 L12.120000839233398 63.46000289916992 L12.120000839233398 0.0 L20.799999237060547 2.4599990844726562 L20.799999237060547 61.0099983215332 L20.799999237060547 61.0099983215332z" stroke="none"/><path fill="#f58536" fill-opacity="1.0" d="M50.01000213623047 45.56999969482422 L12.120000839233398 52.6099967956543 L12.120000839233398 63.46000289916992 L50.01000213623047 52.7599983215332 L50.01000213623047 45.56999969482422 L50.01000213623047 45.56999969482422z" stroke="none"/><path fill="#f58536" fill-opacity="1.0" d="M50.08000183105469 17.729999542236328 L12.120000839233398 10.520000457763672 L12.120000839233398 0.0 L50.08000183105469 10.770000457763672 L50.08000183105469 17.729999542236328 L50.08000183105469 17.729999542236328z" stroke="none"/><path fill="#f58536" fill-opacity="1.0" d="M44.099998474121094 9.069999694824219 L50.19000244140625 10.75 L50.19000244140625 52.7599983215332 L44.099998474121094 54.429996490478516 L44.099998474121094 9.069999694824219 L44.099998474121094 9.069999694824219z" stroke="none"/><path fill="#6b3a19" fill-opacity="1.0" d="M68.0 26.18000030517578 L51.69999694824219 26.950000762939453 L45.939998626708984 26.560001373291016 L62.41999816894531 13.279998779296875 L68.0 26.18000030517578 L68.0 26.18000030517578z" stroke="none"/><path fill="#9d5025" fill-opacity="1.0" d="M45.939998626708984 26.560001373291016 L62.41999816894531 25.630001068115234 L62.41999816894531 13.279998779296875 L45.939998626708984 15.950000762939453 L45.939998626708984 26.560001373291016 L45.939998626708984 26.560001373291016z" stroke="none"/><path fill="#6b3a19" fill-opacity="1.0" d="M30.43000030517578 25.520000457763672 L47.130001068115234 8.689998626708984 L55.62000274658203 24.950000762939453 L38.310001373291016 26.049999237060547 L30.43000030517578 25.520000457763672 L30.43000030517578 25.520000457763672z" stroke="none"/><path fill="#9d5025" fill-opacity="1.0" d="M30.43000030517578 25.520000457763672 L47.130001068115234 24.099998474121094 L47.130001068115234 8.689998626708984 L30.43000030517578 12.600000381469727 L30.43000030517578 25.520000457763672 L30.43000030517578 25.520000457763672z" stroke="none"/><path fill="#9d5025" fill-opacity="1.0" d="M45.939998626708984 37.119998931884766 L68.0 37.5 L62.41999816894531 50.39999771118164 L45.939998626708984 47.72999954223633 L45.939998626708984 37.119998931884766 L45.939998626708984 37.119998931884766z" stroke="none"/><path fill="#9d5025" fill-opacity="1.0" d="M30.43000030517578 38.15999984741211 L55.62000274658203 38.73999786376953 L47.130001068115234 54.9900016784668 L30.43000030517578 51.09000015258789 L30.43000030517578 38.15999984741211 L30.43000030517578 38.15999984741211z" stroke="none"/><path fill="#fbbf93" fill-opacity="1.0" d="M30.43000030517578 38.15999984741211 L47.130001068115234 39.59000015258789 L55.62000274658203 38.73999786376953 L38.310001373291016 37.630001068115234 L30.43000030517578 38.15999984741211 L30.43000030517578 38.15999984741211z" stroke="none"/><path fill="#fbbf93" fill-opacity="1.0" d="M68.0 37.5 L51.69999694824219 36.73999786376953 L45.939998626708984 37.119998931884766 L62.41999816894531 38.060001373291016 L68.0 37.5 L68.0 37.5z" stroke="none"/><path fill="#f58536" fill-opacity="1.0" d="M62.41999816894531 25.630001068115234 L68.0 26.18000030517578 L68.0 14.950000762939453 L62.41999816894531 13.279998779296875 L62.41999816894531 25.630001068115234 L62.41999816894531 25.630001068115234z" stroke="none"/><path fill="#f58536" fill-opacity="1.0" d="M55.62000274658203 24.950000762939453 L47.130001068115234 24.099998474121094 L47.130001068115234 8.689998626708984 L55.62000274658203 11.239999771118164 L55.62000274658203 24.950000762939453 L55.62000274658203 24.950000762939453z" stroke="none"/><path fill="#f58536" fill-opacity="1.0" d="M62.41999816894531 38.060001373291016 L68.0 37.5 L68.0 48.72999954223633 L62.41999816894531 50.39999771118164 L62.41999816894531 38.060001373291016 L62.41999816894531 38.060001373291016z" stroke="none"/><path fill="#f58536" fill-opacity="1.0" d="M55.62000274658203 38.73999786376953 L47.130001068115234 39.59000015258789 L47.130001068115234 54.9900016784668 L55.62000274658203 52.45000076293945 L55.62000274658203 38.73999786376953 L55.62000274658203 38.73999786376953z" stroke="none"/></g><g transform="translate(150.7000000000001 153.38000087738044)"><path fill="#2e73b8" fill-opacity="1.0" d="M63.98999786376953 23.60999870300293 L63.98999786376953 15.969999313354492 L55.94999694824219 7.170000076293945 L42.790000915527344 36.170000076293945 L55.94999694824219 65.15999794006348 L63.98999786376953 56.35000038146973 L63.98999786376953 48.71000099182129 L61.30999755859375 50.53000068664551 L61.30999755859375 46.85999870300293 L63.98999786376953 45.46999931335449 L63.98999786376953 37.78000068664551 L61.30999755859375 37.85000038146973 L61.30999755859375 34.41000175476074 L63.98999786376953 34.53999900817871 L63.98999786376953 27.05000114440918 L61.30999755859375 25.649999618530273 L61.30999755859375 23.07000160217285 L63.98999786376953 23.60999870300293 L63.98999786376953 23.60999870300293z" stroke="none"/><path fill="#5294cf" fill-opacity="1.0" d="M41.619998931884766 72.33999824523926 L55.94999694824219 65.15999794006348 L55.94999694824219 7.159999847412109 L41.619998931884766 0.0 L25.369998931884766 36.78000068664551 L41.619998931884766 72.33999824523926 L41.619998931884766 72.33999824523926z" stroke="none"/><path fill="#2e73b8" fill-opacity="1.0" d="M21.520000457763672 72.33999824523926 L41.619998931884766 72.33999824523926 L41.619998931884766 0.0 L21.520000457763672 0.0 L11.139999389648438 36.78000068664551 L21.520000457763672 72.33999824523926 L21.520000457763672 72.33999824523926z" stroke="none"/><path fill="#205b99" fill-opacity="1.0" d="M21.520000457763672 72.33999824523926 L7.059999465942383 65.15999794006348 L2.510000228881836 36.78000068664551 L7.059999465942383 7.159999847412109 L21.479999542236328 0.0 L21.520000457763672 72.33999824523926 L21.520000457763672 72.33999824523926z" stroke="none"/><path fill="#19486f" fill-opacity="1.0" d="M61.30999755859375 46.85999870300293 L55.94000244140625 49.48000144958496 L41.619998931884766 52.57000160217285 L31.84000015258789 52.57000160217285 L21.520000457763672 52.57000160217285 L7.459999084472656 49.48000144958496 L7.209999084472656 49.42999839782715 L7.049999237060547 49.39000129699707 L7.049999237060547 38.46999931335449 L21.5 39.510000228881836 L31.84000015258789 39.510000228881836 L41.619998931884766 39.510000228881836 L55.94999694824219 38.46999931335449 L64.0 37.80000114440918 L61.30999755859375 37.78000068664551 L61.30999755859375 34.55999946594238 L63.959999084472656 34.53000068664551 L55.94999694824219 33.94000053405762 L41.619998931884766 33.48000144958496 L31.84000015258789 33.48000144958496 L21.630001068115234 33.48000144958496 L7.049999237060547 33.829999923706055 L7.049999237060547 22.829999923706055 L7.209999084472656 22.80000114440918 L21.630001068115234 19.410001754760742 L31.84000015258789 19.410001754760742 L41.619998931884766 19.410001754760742 L55.94999694824219 22.80000114440918 L61.30999755859375 25.660001754760742 L61.30999755859375 23.850000381469727 L63.98999786376953 23.6299991607666 L55.94999694824219 18.010000228881836 L41.619998931884766 13.379999160766602 L31.84000015258789 13.379999160766602 L21.630001068115234 13.379999160766602 L7.049999237060547 18.170000076293945 L7.049999237060547 7.159999847412109 L0.020000457763671875 15.969999313354492 L0.020000457763671875 23.6200008392334 L2.029998779296875 23.850000381469727 L2.029998779296875 25.690000534057617 L0.020000457763671875 26.89000129699707 L0.020000457763671875 34.53999900817871 L2.029998779296875 34.55999946594238 L2.029998779296875 37.78000068664551 L0.020000457763671875 37.80999946594238 L0.020000457763671875 45.420000076293945 L2.029998779296875 46.6200008392334 L2.029998779296875 48.489999771118164 L0.0 48.71999931335449 L0.020000457763671875 56.33999824523926 L7.049999237060547 65.15000343322754 L7.049999237060547 54.14000129699707 L21.509998321533203 58.60000038146973 L31.84000015258789 58.60000038146973 L41.619998931884766 58.60000038146973 L55.94999694824219 54.15999794006348 L63.98999786376953 48.71000099182129 L61.30999755859375 48.489999771118164 L61.30999755859375 46.85999870300293 L61.30999755859375 46.85999870300293z" stroke="none"/></g><g transform="translate(516.3199996948242 300.4499967575074)"><path fill="#9d5025" fill-opacity="1.0" d="M60.86000061035156 32.93000030517578 Q60.86000061035156 45.53391647338867 51.947662353515625 54.446746826171875 Q43.03489685058594 63.36000061035156 30.43000030517578 63.36000061035156 Q17.82558822631836 63.36000061035156 8.912796020507812 54.44720458984375 Q0.0 45.5344123840332 0.0 32.93000030517578 Q0.0 20.32558822631836 8.912796020507812 11.412796020507812 Q17.82558822631836 2.5 30.43000030517578 2.5 Q43.03511428833008 2.5 51.947662353515625 11.412796020507812 Q60.86000061035156 20.32537841796875 60.86000061035156 32.93000030517578 L60.86000061035156 32.93000030517578z" stroke="none"/><path fill="#f58536" fill-opacity="1.0" d="M60.86000061035156 30.43000030517578 Q60.86000061035156 43.03391647338867 51.947662353515625 51.946746826171875 Q43.03489685058594 60.86000061035156 30.43000030517578 60.86000061035156 Q17.82558822631836 60.86000061035156 8.912796020507812 51.94720458984375 Q0.0 43.0344123840332 0.0 30.43000030517578 Q0.0 17.82558822631836 8.912796020507812 8.912796020507812 Q17.82558822631836 0.0 30.43000030517578 0.0 Q43.03511428833008 0.0 51.947662353515625 8.912796020507812 Q60.86000061035156 17.82537841796875 60.86000061035156 30.43000030517578 L60.86000061035156 30.43000030517578z" stroke="none"/><path fill="#ffffff" fill-opacity="1.0" d="M39.31000328063965 5.850000381469727 L39.31000328063965 16.899999618530273 L21.550003051757812 16.899999618530273 L21.550003051757812 5.850000381469727 L39.31000328063965 5.850000381469727z" stroke="none"/><g transform="translate(32.66999816894531 37.8299994468689)"><path fill="#ffffff" fill-opacity="1.0" d="M20.380001068115234 0.0 L20.380001068115234 8.999996185302734 L11.379997253417969 8.999996185302734 L11.379997253417969 7.105427357601002E-15 L20.380001068115234 0.0z" stroke="none"/><path fill="#ffffff" fill-opacity="1.0" d="M9.000003814697266 2.6226043701171875E-6 L9.000003814697273 9.00000262260437 L0.0 9.00000262260437 L0.0 2.622604377222615E-6 L9.000003814697266 2.6226043701171875E-6z" stroke="none"/></g><path fill="#ffffff" fill-opacity="1.0" d="M27.820003509521484 37.829999923706055 L27.820003509521484 46.829999923706055 L18.81999969482422 46.829999923706055 L18.81999969482422 37.82999992370606 L27.820003509521484 37.829999923706055z" stroke="none"/><path fill="#ffffff" fill-opacity="1.0" d="M16.439998626708984 37.829999923706055 L16.439998626708984 46.83000183105469 L7.439994812011719 46.83000183105469 L7.439994812011719 37.829999923706055 L16.439998626708984 37.829999923706055z" stroke="none"/><path fill="#ffffff" fill-opacity="1.0" d="M11.130001068115234 30.040000915527344 L12.75 30.040000915527344 L12.75 38.87000274658203 L11.130001068115234 38.87000274658203 L11.130001068115234 30.040000915527344z" stroke="none"/><path fill="#ffffff" fill-opacity="1.0" d="M11.130001068115234 30.040000915527344 L24.130001068115234 30.040000915527344 L24.130001068115234 31.65999984741211 L11.130001068115234 31.65999984741211 L11.130001068115234 30.040000915527344z" stroke="none"/><path fill="#ffffff" fill-opacity="1.0" d="M22.51000213623047 30.040000915527344 L24.130001068115234 30.040000915527344 L24.130001068115234 38.87000274658203 L22.51000213623047 38.87000274658203 L22.51000213623047 30.040000915527344z" stroke="none"/><path fill="#ffffff" fill-opacity="1.0" d="M36.36000061035156 30.040000915527344 L37.97999954223633 30.040000915527344 L37.97999954223633 38.87000274658203 L36.36000061035156 38.87000274658203 L36.36000061035156 30.040000915527344z" stroke="none"/><path fill="#ffffff" fill-opacity="1.0" d="M36.36000061035156 30.040000915527344 L49.36000061035156 30.040000915527344 L49.36000061035156 31.65999984741211 L36.36000061035156 31.65999984741211 L36.36000061035156 30.040000915527344z" stroke="none"/><path fill="#ffffff" fill-opacity="1.0" d="M47.73999786376953 30.040000915527344 L49.36000061035156 30.040000915527344 L49.36000061035156 38.87000274658203 L47.73999786376953 38.87000274658203 L47.73999786376953 30.040000915527344z" stroke="none"/><path fill="#ffffff" fill-opacity="1.0" d="M16.830001831054688 23.740001678466797 L18.450000762939453 23.740001678466797 L18.450000762939453 30.85000228881836 L16.830001831054688 30.85000228881836 L16.830001831054688 23.740001678466797z" stroke="none"/><path fill="#ffffff" fill-opacity="1.0" d="M29.619998931884766 15.270000457763672 L31.23999786376953 15.270000457763672 L31.23999786376953 23.87000274658203 L29.619998931884766 23.87000274658203 L29.619998931884766 15.270000457763672z" stroke="none"/><path fill="#ffffff" fill-opacity="1.0" d="M16.830001831054688 23.060001373291016 L43.70000457763672 23.060001373291016 L43.70000457763672 24.68000030517578 L16.830001831054688 24.68000030517578 L16.830001831054688 23.060001373291016z" stroke="none"/><path fill="#ffffff" fill-opacity="1.0" d="M42.08000183105469 23.740001678466797 L43.70000076293945 23.740001678466797 L43.70000076293945 30.85000228881836 L42.08000183105469 30.85000228881836 L42.08000183105469 23.740001678466797z" stroke="none"/></g><g transform="translate(403.0 304.38999443054206)"><path fill="#9d5025" fill-opacity="1.0" d="M26.080001831054688 25.46000099182129 L50.099998474121094 25.46000099182129 Q53.099998474121094 25.46000099182129 53.099998474121094 28.46000099182129 L53.099998474121094 52.48000526428223 Q53.099998474121094 55.48000526428223 50.099998474121094 55.48000526428223 L26.080001831054688 55.48000526428223 Q23.080001831054688 55.48000526428223 23.080001831054688 52.48000526428223 L23.080001831054688 28.46000099182129 Q23.080001831054688 25.46000099182129 26.080001831054688 25.46000099182129z" stroke="none"/><path fill="#9d5025" fill-opacity="1.0" d="M27.0 2.479999542236328 L3.0 2.479999542236328 Q0.0 2.479999542236328 0.0 5.479999542236328 L0.0 29.479997634887695 Q0.0 32.479997634887695 3.0 32.479997634887695 L8.540000915527344 32.479997634887695 L8.540000915527344 16.969999313354492 Q8.540000915527344 10.969999313354492 14.540000915527344 10.969999313354492 L30.0 10.969999313354492 L30.0 5.479999542236328 Q30.0 2.479999542236328 27.0 2.479999542236328" stroke="none"/><path fill="#9d5025" fill-opacity="1.0" d="M38.540000915527344 13.969999313354492 L14.540000915527344 13.969999313354492 Q11.540000915527344 13.969999313354492 11.540000915527344 16.969999313354492 L11.540000915527344 40.96999931335449 Q11.540000915527344 43.96999549865723 14.540000915527344 43.96999549865723 L20.09000015258789 43.96999549865723 L20.09000015258789 28.46000099182129 Q20.09000015258789 22.46000099182129 26.09000015258789 22.46000099182129 L41.540000915527344 22.46000099182129 L41.540000915527344 16.969999313354492 Q41.540000915527344 13.969999313354492 38.540000915527344 13.969999313354492" stroke="none"/><path fill="#f58536" fill-opacity="1.0" d="M26.080001831054688 22.98000144958496 L50.099998474121094 22.98000144958496 Q53.099998474121094 22.98000144958496 53.099998474121094 25.98000144958496 L53.099998474121094 50.00000190734863 Q53.099998474121094 53.00000190734863 50.099998474121094 53.00000190734863 L26.080001831054688 53.00000190734863 Q23.080001831054688 53.00000190734863 23.080001831054688 50.00000190734863 L23.080001831054688 25.98000144958496 Q23.080001831054688 22.98000144958496 26.080001831054688 22.98000144958496z" stroke="none"/><path fill="#f58536" fill-opacity="1.0" d="M27.0 0.0 L3.0 0.0 Q0.0 0.0 0.0 3.0 L0.0 27.000001907348633 Q0.0 30.000001907348633 3.0 30.000001907348633 L8.540000915527344 30.000001907348633 L8.540000915527344 14.489999771118164 Q8.540000915527344 8.489999771118164 14.540000915527344 8.489999771118164 L30.0 8.489999771118164 L30.0 3.0 Q30.0 0.0 27.0 0.0" stroke="none"/><path fill="#f58536" fill-opacity="1.0" d="M38.540000915527344 11.489999771118164 L14.540000915527344 11.489999771118164 Q11.540000915527344 11.489999771118164 11.540000915527344 14.489999771118164 L11.540000915527344 38.489999771118164 Q11.540000915527344 41.489999771118164 14.540000915527344 41.489999771118164 L20.09000015258789 41.489999771118164 L20.09000015258789 25.98000144958496 Q20.09000015258789 19.98000144958496 26.09000015258789 19.98000144958496 L41.540000915527344 19.98000144958496 L41.540000915527344 14.489999771118164 Q41.540000915527344 11.489999771118164 38.540000915527344 11.489999771118164" stroke="none"/></g><g transform="translate(345.0 174.6850002288819)"><path fill="#9d5025" fill-opacity="1.0" d="M0.0 2.479999542236328 L53.0 2.479999542236328 L53.0 29.729999542236328 L0.0 29.729999542236328 L0.0 2.479999542236328z" stroke="none"/><path fill="#f58536" fill-opacity="1.0" d="M0.0 0.0 L53.0 0.0 L53.0 27.25 L0.0 27.25 L0.0 0.0z" stroke="none"/><path fill="#fbbf93" fill-opacity="1.0" d="M11.450000762939453 1.6299972534179688 L13.950000762939453 1.6299972534179688 L13.950000762939453 25.62999725341797 L11.450000762939453 25.62999725341797 L11.450000762939453 1.6299972534179688z" stroke="none"/><path fill="#fbbf93" fill-opacity="1.0" d="M16.049999237060547 1.6299972534179688 L18.549999237060547 1.6299972534179688 L18.549999237060547 25.62999725341797 L16.049999237060547 25.62999725341797 L16.049999237060547 1.6299972534179688z" stroke="none"/><path fill="#fbbf93" fill-opacity="1.0" d="M20.650001525878906 1.6299972534179688 L23.150001525878906 1.6299972534179688 L23.150001525878906 25.62999725341797 L20.650001525878906 25.62999725341797 L20.650001525878906 1.6299972534179688z" stroke="none"/><path fill="#fbbf93" fill-opacity="1.0" d="M2.25 1.6299972534179688 L4.75 1.6299972534179688 L4.75 25.62999725341797 L2.25 25.62999725341797 L2.25 1.6299972534179688z" stroke="none"/><path fill="#fbbf93" fill-opacity="1.0" d="M6.850000381469727 1.6299972534179688 L9.349998474121094 1.6299972534179688 L9.349998474121094 25.62999725341797 L6.850000381469727 25.62999725341797 L6.850000381469727 1.6299972534179688z" stroke="none"/><path fill="#fbbf93" fill-opacity="1.0" d="M25.25 1.6299972534179688 L27.75 1.6299972534179688 L27.75 25.62999725341797 L25.25 25.62999725341797 L25.25 1.6299972534179688z" stroke="none"/><path fill="#fbbf93" fill-opacity="1.0" d="M29.849998474121094 1.6299972534179688 L32.349998474121094 1.6299972534179688 L32.349998474121094 25.62999725341797 L29.849998474121094 25.62999725341797 L29.849998474121094 1.6299972534179688z" stroke="none"/><path fill="#fbbf93" fill-opacity="1.0" d="M34.45000076293945 1.6299972534179688 L36.95000076293945 1.6299972534179688 L36.95000076293945 25.62999725341797 L34.45000076293945 25.62999725341797 L34.45000076293945 1.6299972534179688z" stroke="none"/><path fill="#fbbf93" fill-opacity="1.0" d="M39.04999923706055 1.6299972534179688 L41.55000305175781 1.6299972534179688 L41.55000305175781 25.62999725341797 L39.04999923706055 25.62999725341797 L39.04999923706055 1.6299972534179688z" stroke="none"/><path fill="#fbbf93" fill-opacity="1.0" d="M43.650001525878906 1.6299972534179688 L46.150001525878906 1.6299972534179688 L46.150001525878906 25.62999725341797 L43.650001525878906 25.62999725341797 L43.650001525878906 1.6299972534179688z" stroke="none"/><path fill="#fbbf93" fill-opacity="1.0" d="M48.25 1.6299972534179688 L50.75 1.6299972534179688 L50.75 25.62999725341797 L48.25 25.62999725341797 L48.25 1.6299972534179688z" stroke="none"/><path fill="#ffffff" fill-opacity="1.0" d="M2.8999996185302734 2.279998779296875 L4.75 2.279998779296875 L4.75 25.630001068115234 L2.8999996185302734 25.630001068115234 L2.8999996185302734 2.279998779296875z" stroke="none"/><path fill="#ffffff" fill-opacity="1.0" d="M7.5 2.279998779296875 L9.349998474121094 2.279998779296875 L9.349998474121094 25.630001068115234 L7.5 25.630001068115234 L7.5 2.279998779296875z" stroke="none"/><path fill="#ffffff" fill-opacity="1.0" d="M12.099998474121094 2.279998779296875 L13.949996948242188 2.279998779296875 L13.949996948242188 25.630001068115234 L12.099998474121094 25.630001068115234 L12.099998474121094 2.279998779296875z" stroke="none"/><path fill="#ffffff" fill-opacity="1.0" d="M16.700000762939453 2.279998779296875 L18.549999237060547 2.279998779296875 L18.549999237060547 25.630001068115234 L16.700000762939453 25.630001068115234 L16.700000762939453 2.279998779296875z" stroke="none"/><path fill="#ffffff" fill-opacity="1.0" d="M21.299999237060547 2.279998779296875 L23.14999771118164 2.279998779296875 L23.14999771118164 25.630001068115234 L21.299999237060547 25.630001068115234 L21.299999237060547 2.279998779296875z" stroke="none"/><path fill="#ffffff" fill-opacity="1.0" d="M25.900001525878906 2.279998779296875 L27.75 2.279998779296875 L27.75 25.630001068115234 L25.900001525878906 25.630001068115234 L25.900001525878906 2.279998779296875z" stroke="none"/><path fill="#ffffff" fill-opacity="1.0" d="M30.5 2.279998779296875 L32.349998474121094 2.279998779296875 L32.349998474121094 25.630001068115234 L30.5 25.630001068115234 L30.5 2.279998779296875z" stroke="none"/><path fill="#ffffff" fill-opacity="1.0" d="M35.099998474121094 2.279998779296875 L36.94999694824219 2.279998779296875 L36.94999694824219 25.630001068115234 L35.099998474121094 25.630001068115234 L35.099998474121094 2.279998779296875z" stroke="none"/><path fill="#ffffff" fill-opacity="1.0" d="M39.70000076293945 2.279998779296875 L41.55000305175781 2.279998779296875 L41.55000305175781 25.630001068115234 L39.70000076293945 25.630001068115234 L39.70000076293945 2.279998779296875z" stroke="none"/><path fill="#ffffff" fill-opacity="1.0" d="M44.30000305175781 2.279998779296875 L46.150001525878906 2.279998779296875 L46.150001525878906 25.630001068115234 L44.30000305175781 25.630001068115234 L44.30000305175781 2.279998779296875z" stroke="none"/><path fill="#ffffff" fill-opacity="1.0" d="M48.900001525878906 2.279998779296875 L50.75 2.279998779296875 L50.75 25.630001068115234 L48.900001525878906 25.630001068115234 L48.900001525878906 2.279998779296875z" stroke="none"/></g><g transform="translate(458.0 174.6850002288819)"><path fill="#9d5025" fill-opacity="1.0" d="M0.0 2.479999542236328 L53.0 2.479999542236328 L53.0 29.729999542236328 L0.0 29.729999542236328 L0.0 2.479999542236328z" stroke="none"/><path fill="#f58536" fill-opacity="1.0" d="M0.0 0.0 L53.0 0.0 L53.0 27.25 L0.0 27.25 L0.0 0.0z" stroke="none"/><path fill="#fbbf93" fill-opacity="1.0" d="M11.450000762939453 1.6299972534179688 L13.950000762939453 1.6299972534179688 L13.950000762939453 25.62999725341797 L11.450000762939453 25.62999725341797 L11.450000762939453 1.6299972534179688z" stroke="none"/><path fill="#fbbf93" fill-opacity="1.0" d="M16.049999237060547 1.6299972534179688 L18.549999237060547 1.6299972534179688 L18.549999237060547 25.62999725341797 L16.049999237060547 25.62999725341797 L16.049999237060547 1.6299972534179688z" stroke="none"/><path fill="#fbbf93" fill-opacity="1.0" d="M20.650001525878906 1.6299972534179688 L23.150001525878906 1.6299972534179688 L23.150001525878906 25.62999725341797 L20.650001525878906 25.62999725341797 L20.650001525878906 1.6299972534179688z" stroke="none"/><path fill="#fbbf93" fill-opacity="1.0" d="M2.25 1.6299972534179688 L4.75 1.6299972534179688 L4.75 25.62999725341797 L2.25 25.62999725341797 L2.25 1.6299972534179688z" stroke="none"/><path fill="#fbbf93" fill-opacity="1.0" d="M6.850000381469727 1.6299972534179688 L9.349998474121094 1.6299972534179688 L9.349998474121094 25.62999725341797 L6.850000381469727 25.62999725341797 L6.850000381469727 1.6299972534179688z" stroke="none"/><path fill="#fbbf93" fill-opacity="1.0" d="M25.25 1.6299972534179688 L27.75 1.6299972534179688 L27.75 25.62999725341797 L25.25 25.62999725341797 L25.25 1.6299972534179688z" stroke="none"/><path fill="#fbbf93" fill-opacity="1.0" d="M29.849998474121094 1.6299972534179688 L32.349998474121094 1.6299972534179688 L32.349998474121094 25.62999725341797 L29.849998474121094 25.62999725341797 L29.849998474121094 1.6299972534179688z" stroke="none"/><path fill="#fbbf93" fill-opacity="1.0" d="M34.45000076293945 1.6299972534179688 L36.95000076293945 1.6299972534179688 L36.95000076293945 25.62999725341797 L34.45000076293945 25.62999725341797 L34.45000076293945 1.6299972534179688z" stroke="none"/><path fill="#fbbf93" fill-opacity="1.0" d="M39.04999923706055 1.6299972534179688 L41.55000305175781 1.6299972534179688 L41.55000305175781 25.62999725341797 L39.04999923706055 25.62999725341797 L39.04999923706055 1.6299972534179688z" stroke="none"/><path fill="#fbbf93" fill-opacity="1.0" d="M43.650001525878906 1.6299972534179688 L46.150001525878906 1.6299972534179688 L46.150001525878906 25.62999725341797 L43.650001525878906 25.62999725341797 L43.650001525878906 1.6299972534179688z" stroke="none"/><path fill="#fbbf93" fill-opacity="1.0" d="M48.25 1.6299972534179688 L50.75 1.6299972534179688 L50.75 25.62999725341797 L48.25 25.62999725341797 L48.25 1.6299972534179688z" stroke="none"/><path fill="#ffffff" fill-opacity="1.0" d="M2.8999996185302734 2.279998779296875 L4.75 2.279998779296875 L4.75 25.630001068115234 L2.8999996185302734 25.630001068115234 L2.8999996185302734 2.279998779296875z" stroke="none"/><path fill="#ffffff" fill-opacity="1.0" d="M7.5 2.279998779296875 L9.349998474121094 2.279998779296875 L9.349998474121094 25.630001068115234 L7.5 25.630001068115234 L7.5 2.279998779296875z" stroke="none"/><path fill="#ffffff" fill-opacity="1.0" d="M12.099998474121094 2.279998779296875 L13.949996948242188 2.279998779296875 L13.949996948242188 25.630001068115234 L12.099998474121094 25.630001068115234 L12.099998474121094 2.279998779296875z" stroke="none"/><path fill="#ffffff" fill-opacity="1.0" d="M16.700000762939453 2.279998779296875 L18.549999237060547 2.279998779296875 L18.549999237060547 25.630001068115234 L16.700000762939453 25.630001068115234 L16.700000762939453 2.279998779296875z" stroke="none"/><path fill="#ffffff" fill-opacity="1.0" d="M21.299999237060547 2.279998779296875 L23.14999771118164 2.279998779296875 L23.14999771118164 25.630001068115234 L21.299999237060547 25.630001068115234 L21.299999237060547 2.279998779296875z" stroke="none"/><path fill="#ffffff" fill-opacity="1.0" d="M25.900001525878906 2.279998779296875 L27.75 2.279998779296875 L27.75 25.630001068115234 L25.900001525878906 25.630001068115234 L25.900001525878906 2.279998779296875z" stroke="none"/><path fill="#ffffff" fill-opacity="1.0" d="M30.5 2.279998779296875 L32.349998474121094 2.279998779296875 L32.349998474121094 25.630001068115234 L30.5 25.630001068115234 L30.5 2.279998779296875z" stroke="none"/><path fill="#ffffff" fill-opacity="1.0" d="M35.099998474121094 2.279998779296875 L36.94999694824219 2.279998779296875 L36.94999694824219 25.630001068115234 L35.099998474121094 25.630001068115234 L35.099998474121094 2.279998779296875z" stroke="none"/><path fill="#ffffff" fill-opacity="1.0" d="M39.70000076293945 2.279998779296875 L41.55000305175781 2.279998779296875 L41.55000305175781 25.630001068115234 L39.70000076293945 25.630001068115234 L39.70000076293945 2.279998779296875z" stroke="none"/><path fill="#ffffff" fill-opacity="1.0" d="M44.30000305175781 2.279998779296875 L46.150001525878906 2.279998779296875 L46.150001525878906 25.630001068115234 L44.30000305175781 25.630001068115234 L44.30000305175781 2.279998779296875z" stroke="none"/><path fill="#ffffff" fill-opacity="1.0" d="M48.900001525878906 2.279998779296875 L50.75 2.279998779296875 L50.75 25.630001068115234 L48.900001525878906 25.630001068115234 L48.900001525878906 2.279998779296875z" stroke="none"/></g><g transform="translate(640.2900011062623 303.92962055206306)"><path fill="#7d7c7c" fill-opacity="1.0" d="M49.59000205993652 23.210750579833984 Q58.819997787475586 23.210750579833984 58.819997787475586 31.500751495361328 L58.819997787475586 42.07075119018555 L54.03999900817871 42.07075119018555 L54.03999900817871 34.890750885009766 L52.73000144958496 34.890750885009766 L52.73000144958496 42.07075119018555 L45.39999961853027 42.07075119018555 Q44.59402275085449 33.07075119018555 34.489999771118164 33.07075119018555 L30.280000686645508 33.07075119018555 L30.280000686645508 30.15074920654297 Q38.53318214416504 29.406902313232422 39.07000160217285 23.200748443603516 L39.510000228881836 23.200748443603516" stroke="none"/><path fill="#7d7c7c" fill-opacity="1.0" d="M19.30000114440918 23.210750579833984 L19.750001907348633 23.210750579833984 Q20.286760330200195 29.416194915771484 28.530000686645508 30.160751342773438 L28.530000686645508 33.07075119018555 L24.399999618530273 33.07075119018555 Q14.280656814575195 33.07075119018555 13.489999771118164 42.07075119018555 L6.299999237060547 42.07075119018555 L6.299999237060547 34.90074920654297 L5.0 34.90074920654297 L5.0 42.07075119018555 L0.0 42.07075119018555 L0.0 31.480751037597656 Q0.0 23.190750122070312 9.229999542236328 23.190750122070312" stroke="none"/><path fill="#7d7c7c" fill-opacity="1.0" d="M34.44999885559082 37.520751953125 Q43.67999839782715 37.520751953125 43.67999839782715 45.81074905395508 L43.67999839782715 56.400753021240234 L38.89000129699707 56.400753021240234 L38.89000129699707 49.210750579833984 L37.59000205993652 49.210750579833984 L37.59000205993652 56.3807487487793 L21.399999618530273 56.3807487487793 L21.399999618530273 49.210750579833984 L20.14000129699707 49.210750579833984 L20.14000129699707 56.3807487487793 L15.14000129699707 56.3807487487793 L15.14000129699707 45.81074905395508 Q15.14000129699707 37.520748138427734 24.3700008392334 37.520748138427734" stroke="none"/><path fill="#7d7c7c" fill-opacity="1.0" d="M14.249998092651367 2.580751419067383 L22.249998092651367 8.250751495361328 L22.249998092651367 10.720752716064453 Q22.287458419799805 14.069358825683594 19.94305992126465 16.46063995361328 Q17.598649978637695 18.851924896240234 14.249998092651367 18.880752563476562 Q6.249998092651367 18.880752563476562 6.249998092651367 10.350753784179688 L6.249998092651367 8.210750579833984" stroke="none"/><path fill="#7d7c7c" fill-opacity="1.0" d="M44.53999900817871 2.580751419067383 L52.53999900817871 8.250751495361328 L52.53999900817871 10.720752716064453 Q52.57746696472168 14.069351196289062 50.23306083679199 16.46063995361328 Q47.888654708862305 18.851924896240234 44.53999900817871 18.880752563476562 Q36.53999900817871 18.880752563476562 36.53999900817871 10.350753784179688 L36.53999900817871 8.210750579833984" stroke="none"/><path fill="#7d7c7c" fill-opacity="1.0" d="M29.399999618530273 13.730751037597656 L36.46999931335449 18.730751037597656 L36.46999931335449 20.92074966430664 Q36.5242862701416 23.898284912109375 34.45101737976074 26.036052703857422 Q32.37775230407715 28.173816680908203 29.399999618530273 28.210750579833984 Q26.359193801879883 28.138233184814453 24.284746170043945 25.91372299194336 Q22.210302352905273 23.689212799072266 22.350000381469727 20.65074920654297 L22.350000381469727 18.68075180053711" stroke="none"/><path fill="#d2d3d3" fill-opacity="1.0" d="M44.55000114440918 0.10074996948242188 Q50.02345848083496 0.0 52.186697006225586 5.028841018676758 Q54.34993553161621 10.057687759399414 50.512685775756836 13.962085723876953 Q46.67542839050293 17.866493225097656 41.609819412231445 15.790809631347656 Q36.54421043395996 13.715129852294922 36.55000114440918 8.24074935913086 Q36.52089881896973 4.897956848144531 38.86408805847168 2.513782501220703 Q41.20727729797363 0.12960433959960938 44.55000114440918 0.10074996948242188" stroke="none"/><path fill="#d2d3d3" fill-opacity="1.0" d="M29.399999618530273 11.210750579833984 Q34.26003074645996 11.096443176269531 36.19961738586426 15.554122924804688 Q38.139211654663086 20.011798858642578 34.74283790588379 23.48995590209961 Q31.346460342407227 26.96811294555664 26.843904495239258 25.135116577148438 Q22.34134864807129 23.30211639404297 22.339998245239258 18.440750122070312 Q22.259538650512695 11.300178527832031 29.399999618530273 11.210750579833984" stroke="none"/><path fill="#d2d3d3" fill-opacity="1.0" d="M49.59000205993652 20.70075225830078 Q58.819997787475586 20.70075225830078 58.819997787475586 29.000751495361328 L58.819997787475586 39.59075164794922 L54.03999900817871 39.59075164794922 L54.03999900817871 32.41075134277344 L52.73000144958496 32.41075134277344 L52.73000144958496 39.59075164794922 L45.39999961853027 39.59075164794922 Q44.59402275085449 30.59075164794922 34.489999771118164 30.59075164794922 L30.280000686645508 30.59075164794922 L30.280000686645508 29.68075180053711 Q38.409101486206055 28.873092651367188 39.07000160217285 20.730751037597656 L39.510000228881836 20.730751037597656" stroke="none"/><path fill="#d2d3d3" fill-opacity="1.0" d="M19.30000114440918 20.710750579833984 L19.750001907348633 20.710750579833984 Q20.409440994262695 28.845447540283203 28.530000686645508 29.660751342773438 L28.530000686645508 30.570751190185547 L24.399999618530273 30.570751190185547 Q14.280656814575195 30.570751190185547 13.489999771118164 39.57075119018555 L6.299999237060547 39.57075119018555 L6.299999237060547 32.42074966430664 L5.0 32.42074966430664 L5.0 39.59074783325195 L0.0 39.59074783325195 L0.0 29.000751495361328 Q0.0 20.710750579833984 9.229999542236328 20.710750579833984" stroke="none"/><path fill="#d2d3d3" fill-opacity="1.0" d="M34.44999885559082 35.04075241088867 Q43.67999839782715 35.04075241088867 43.67999839782715 43.330753326416016 L43.67999839782715 53.92074966430664 L38.89000129699707 53.92074966430664 L38.89000129699707 46.75075149536133 L37.59000205993652 46.75075149536133 L37.59000205993652 53.92074966430664 L21.399999618530273 53.92074966430664 L21.399999618530273 46.75075149536133 L20.14000129699707 46.75075149536133 L20.14000129699707 53.92074966430664 L15.14000129699707 53.92074966430664 L15.14000129699707 43.330753326416016 Q15.14000129699707 35.04075241088867 24.3700008392334 35.04075241088867" stroke="none"/><path fill="#d2d3d3" fill-opacity="1.0" d="M14.249998092651367 0.10074996948242188 Q19.72345542907715 0.0 21.886693954467773 5.028841018676758 Q24.0499324798584 10.057683944702148 20.212682723999023 13.962085723876953 Q16.375425338745117 17.866493225097656 11.309818267822266 15.790809631347656 Q6.244207382202148 13.715133666992188 6.249998092651367 8.24074935913086 Q6.189727783203125 0.18035316467285156 14.249998092651367 0.10074996948242188" stroke="none"/></g><path fill="none" marker-end="url(#id1)" d="M201.911723530384 66.13743656441517 L270.7000000000001 157.8199985504151" stroke-width="2.0" stroke-linejoin="round" stroke="#000000"/><g transform="translate(287.0 137.0)"><defs><clipPath id="id2"><path d="M0 0 L77.0 0 L77.0 25.0 L0 25.0z"/></clipPath></defs><text font-size="12" clip-path="url(#id2)" text-decoration="none" fill="#000000" font-family="Arial,Arial" font-style="normal" font-weight="normal"><tspan x="5.0" xml:space="preserve" y="16.5" textLength="66.0">ECS Cluster</tspan></text></g><g transform="translate(348.5 149.6850002288819)"><defs><clipPath id="id3"><path d="M0 0 L46.0 0 L46.0 25.0 L0 25.0z"/></clipPath></defs><text font-size="12" clip-path="url(#id3)" text-decoration="none" fill="#000000" font-family="Arial,Arial" font-style="normal" font-weight="normal"><tspan x="14.0" xml:space="preserve" y="16.5" textLength="18.0">Old</tspan></text></g><g transform="translate(461.0 149.6850002288819)"><defs><clipPath id="id4"><path d="M0 0 L46.0 0 L46.0 25.0 L0 25.0z"/></clipPath></defs><text font-size="12" clip-path="url(#id4)" text-decoration="none" fill="#000000" font-family="Arial,Arial" font-style="normal" font-weight="normal"><tspan x="11.0" xml:space="preserve" y="16.5" textLength="24.0">New</tspan></text></g><g transform="translate(242.5 73.0)"><path fill="#fbdae6" fill-opacity="1.0" d="M129.00000000000003 38.0 L0.0 38.0 L0.0 0.0 L129.00000000000003 0.0 L129.00000000000003 38.0z" stroke-width="1.0" stroke-linejoin="round" stroke="#000000"/><g transform="translate(1.0 1.0)"><defs><clipPath id="id5"><path d="M0 0 L127.0 0 L127.0 36.0 L0 36.0z"/></clipPath></defs><text font-size="12" clip-path="url(#id5)" text-decoration="none" fill="#000000" font-family="Arial,Arial" font-style="normal" font-weight="normal"><tspan x="6.0" xml:space="preserve" y="22.0" textLength="114.0">(1) Request to deploy</tspan></text></g></g><g transform="translate(430.0 92.0)"><path fill="#fbdae6" fill-opacity="1.0" d="M108.00000000000003 38.0 L0.0 38.0 L0.0 0.0 L108.00000000000003 0.0 L108.00000000000003 38.0z" stroke-width="1.0" stroke-linejoin="round" stroke="#000000"/><g transform="translate(1.0 1.0)"><defs><clipPath id="id6"><path d="M0 0 L106.0 0 L106.0 36.0 L0 36.0z"/></clipPath></defs><text font-size="12" clip-path="url(#id6)" text-decoration="none" fill="#000000" font-family="Arial,Arial" font-style="normal" font-weight="normal"><tspan x="11.0" xml:space="preserve" y="15.0" textLength="86.0">(2) Launch new </tspan><tspan x="28.0" xml:space="preserve" y="29.0" textLength="49.0">container</tspan></text></g></g><g transform="translate(309.25 204.41499977111823)"><defs><clipPath id="id7"><path d="M0 0 L124.5 0 L124.5 27.314999771118096 L0 27.314999771118096z"/></clipPath></defs><text font-size="12" clip-path="url(#id7)" text-decoration="none" fill="#000000" font-family="Arial,Arial" font-style="normal" font-weight="normal"><tspan x="15.0" xml:space="preserve" y="17.657499885559048" textLength="93.0">10.0.10.10:33333</tspan></text></g><g transform="translate(422.25 204.41499977111823)"><defs><clipPath id="id8"><path d="M0 0 L124.5 0 L124.5 27.314999771118096 L0 27.314999771118096z"/></clipPath></defs><text font-size="12" clip-path="url(#id8)" text-decoration="none" fill="#000000" font-family="Arial,Arial" font-style="normal" font-weight="normal"><tspan x="15.0" xml:space="preserve" y="17.657499885559048" textLength="93.0">10.0.10.20:44444</tspan></text></g><path fill="none" marker-end="url(#id9)" d="M182.7000000000001 66.23999881744385 L182.7000000000001 153.38000087738044" stroke-width="2.0" stroke-linejoin="round" stroke="#000000"/><g transform="translate(10.549999237060547 83.0)"><path fill="#fbdae6" fill-opacity="1.0" d="M161.2000007629395 38.0 L0.0 38.0 L0.0 0.0 L161.2000007629395 0.0 L161.2000007629395 38.0z" stroke-width="1.0" stroke-linejoin="round" stroke="#000000"/><g transform="translate(1.0 1.0)"><defs><clipPath id="id10"><path d="M0 0 L159.20000076293945 0 L159.20000076293945 36.0 L0 36.0z"/></clipPath></defs><text font-size="12" clip-path="url(#id10)" text-decoration="none" fill="#000000" font-family="Arial,Arial" font-style="normal" font-weight="normal"><tspan x="9.0" xml:space="preserve" y="15.0" textLength="140.0">(3) Put new container info.</tspan><tspan x="33.0" xml:space="preserve" y="29.0" textLength="93.0">10.0.10.20:44444</tspan></text></g></g><path fill="none" marker-end="url(#id11)" d="M416.2749996185303 304.38999443054206 L378.4510367662609 231.72999954223633" stroke-width="2.0" stroke-linejoin="round" stroke="#000000"/><path fill="none" stroke-linejoin="round" stroke-dasharray="6.0 6.0" d="M429.54999923706055 304.38999443054206 L477.92016398571445 231.72999954223633" stroke="#000000" stroke-width="2.0" marker-end="url(#id12)"/><path fill="none" marker-end="url(#id13)" d="M214.7000000000001 207.63499956130988 L247.85000000000002 207.63499956130988 L247.85000000000002 318.2599957466126 L403.0 318.2599957466126" stroke-width="2.0" stroke-linejoin="round" stroke="#000000"/><g transform="translate(76.0 249.0)"><path fill="#fbdae6" fill-opacity="1.0" d="M161.2000007629395 22.0 L0.0 22.0 L0.0 0.0 L161.2000007629395 0.0 L161.2000007629395 22.0z" stroke-width="1.0" stroke-linejoin="round" stroke="#000000"/><g transform="translate(1.0 1.0)"><defs><clipPath id="id14"><path d="M0 0 L159.20000076293945 0 L159.20000076293945 20.0 L0 20.0z"/></clipPath></defs><text font-size="12" clip-path="url(#id14)" text-decoration="none" fill="#000000" font-family="Arial,Arial" font-style="normal" font-weight="normal"><tspan x="9.0" xml:space="preserve" y="14.0" textLength="141.0">(4) Get new container info.</tspan></text></g></g><g transform="translate(228.64999961853027 322.8699996948243)"><path fill="#fbdae6" fill-opacity="1.0" d="M161.2000007629395 36.99999999999999 L0.0 36.99999999999999 L0.0 0.0 L161.2000007629395 0.0 L161.2000007629395 36.99999999999999z" stroke-width="1.0" stroke-linejoin="round" stroke="#000000"/><g transform="translate(1.0 1.0)"><defs><clipPath id="id15"><path d="M0 0 L159.20000076293945 0 L159.20000076293945 35.0 L0 35.0z"/></clipPath></defs><text font-size="12" clip-path="url(#id15)" text-decoration="none" fill="#000000" font-family="Arial,Arial" font-style="normal" font-weight="normal"><tspan x="17.0" xml:space="preserve" y="14.5" textLength="128.0">(5) Generate new nginx </tspan><tspan x="17.0" xml:space="preserve" y="28.5" textLength="124.0">config and reload nginx</tspan></text></g></g><g transform="translate(529.4510367662609 260.0)"><path fill="#fbdae6" fill-opacity="1.0" d="M161.2000007629395 35.00000000000001 L0.0 35.00000000000001 L0.0 0.0 L161.2000007629395 0.0 L161.2000007629395 35.00000000000001z" stroke-width="1.0" stroke-linejoin="round" stroke="#000000"/><g transform="translate(1.0 1.0)"><defs><clipPath id="id16"><path d="M0 0 L159.20000076293945 0 L159.20000076293945 33.0 L0 33.0z"/></clipPath></defs><text font-size="12" clip-path="url(#id16)" text-decoration="none" fill="#000000" font-family="Arial,Arial" font-style="normal" font-weight="normal"><tspan x="17.0" xml:space="preserve" y="13.5" textLength="127.0">(6) We can access new </tspan><tspan x="53.0" xml:space="preserve" y="27.5" textLength="52.0">container.</tspan></text></g></g><path fill="none" marker-end="url(#id17)" d="M516.3199996948242 332.1299970626832 L456.0999984741211 332.1299970626832" stroke-width="2.0" stroke-linejoin="round" stroke="#000000"/><path fill="none" marker-end="url(#id18)" d="M640.2900011062623 332.1299970626832 L577.1800003051758 332.1299970626832" stroke-width="2.0" stroke-linejoin="round" stroke="#000000"/></g></svg>