<?xml version="1.0" encoding="utf-8"?>
<svg contentScriptType="text/ecmascript" xmlns:xlink="http://www.w3.org/1999/xlink" zoomAndPan="magnify" contentStyleType="text/css" viewBox="19.0 3.5114962232908056 633.0 351.4885037767092" xmlns:cacoo="http://cacoo.com/" preserveAspectRatio="xMidYMin meet" xmlns="http://www.w3.org/2000/svg" version="1.1"><defs><marker refX="14.0" refY="7.0" markerUnits="userSpaceOnUse" orient="auto" id="id1" markerHeight="14.0" viewBox="0 0 14.0 14.0" preserveAspectRatio="xMidYMid meet" markerWidth="14.0" overflow="visible"><path fill="#000000" d="M7.0 3.5 L14.0 7.0 L7.0 10.5z" stroke-width="2.0" stroke-linejoin="round" stroke-linecap="round" stroke="#000000"/></marker><marker refX="14.0" refY="7.0" markerUnits="userSpaceOnUse" orient="auto" id="id5" markerHeight="14.0" viewBox="0 0 14.0 14.0" preserveAspectRatio="xMidYMid meet" markerWidth="14.0" overflow="visible"><path fill="#000000" d="M7.0 3.5 L14.0 7.0 L7.0 10.5z" stroke-width="2.0" stroke-linejoin="round" stroke-linecap="round" stroke="#000000"/></marker><marker refX="14.0" refY="7.0" markerUnits="userSpaceOnUse" orient="auto" id="id7" markerHeight="14.0" viewBox="0 0 14.0 14.0" preserveAspectRatio="xMidYMid meet" markerWidth="14.0" overflow="visible"><path fill="#000000" d="M7.0 3.5 L14.0 7.0 L7.0 10.5z" stroke-width="2.0" stroke-linejoin="round" stroke-linecap="round" stroke="#000000"/></marker><marker refX="14.0" refY="7.0" markerUnits="userSpaceOnUse" orient="auto" id="id11" markerHeight="14.0" viewBox="0 0 14.0 14.0" preserveAspectRatio="xMidYMid meet" markerWidth="14.0" overflow="visible"><path fill="#000000" d="M7.0 3.5 L14.0 7.0 L7.0 10.5z" stroke-width="2.0" stroke-linejoin="round" stroke-linecap="round" stroke="#000000"/></marker></defs><g><g transform="translate(34.0 217.0)"><path fill="#ffffff" fill-opacity="1.0" d="M255.00000000000006 118.0 Q255.00000000000006 123.0 250.00000000000006 123.0 L5.0 123.0 Q0.0 123.0 0.0 118.0 L0.0 5.0 Q0.0 0.0 5.0 0.0 L250.00000000000006 0.0 Q255.00000000000006 0.0 255.00000000000006 5.0 L255.00000000000006 118.0 L255.00000000000006 118.0z" stroke-width="1.0" stroke-linejoin="round" stroke="#000000"/><g transform="translate(1.0 1.0)"><defs><clipPath id="id0"><path d="M0 0 L253.0 0 L253.0 121.0 L0 121.0z"/></clipPath></defs><text font-size="12" clip-path="url(#id0)" text-decoration="none" fill="#000000" font-family="Arial,Arial" font-style="normal" font-weight="normal"/></g></g><g transform="translate(159.06999969482422 88.41999969482424)"><path fill="#9d5025" fill-opacity="1.0" d="M60.86000061035156 32.93000030517578 Q60.86000061035156 45.53391647338867 51.947662353515625 54.446746826171875 Q43.03489685058594 63.36000061035156 30.43000030517578 63.36000061035156 Q17.82558822631836 63.36000061035156 8.912796020507812 54.44720458984375 Q0.0 45.5344123840332 0.0 32.93000030517578 Q0.0 20.32558822631836 8.912796020507812 11.412796020507812 Q17.82558822631836 2.5 30.43000030517578 2.5 Q43.03511428833008 2.5 51.947662353515625 11.412796020507812 Q60.86000061035156 20.32537841796875 60.86000061035156 32.93000030517578 L60.86000061035156 32.93000030517578z" stroke="none"/><path fill="#f58536" fill-opacity="1.0" d="M60.86000061035156 30.43000030517578 Q60.86000061035156 43.03391647338867 51.947662353515625 51.946746826171875 Q43.03489685058594 60.86000061035156 30.43000030517578 60.86000061035156 Q17.82558822631836 60.86000061035156 8.912796020507812 51.94720458984375 Q0.0 43.0344123840332 0.0 30.43000030517578 Q0.0 17.82558822631836 8.912796020507812 8.912796020507812 Q17.82558822631836 0.0 30.43000030517578 0.0 Q43.03511428833008 0.0 51.947662353515625 8.912796020507812 Q60.86000061035156 17.82537841796875 60.86000061035156 30.43000030517578 L60.86000061035156 30.43000030517578z" stroke="none"/><path fill="#ffffff" fill-opacity="1.0" d="M39.31000328063965 5.850000381469727 L39.31000328063965 16.899999618530273 L21.550003051757812 16.899999618530273 L21.550003051757812 5.850000381469727 L39.31000328063965 5.850000381469727z" stroke="none"/><g transform="translate(32.66999816894531 37.8299994468689)"><path fill="#ffffff" fill-opacity="1.0" d="M20.380001068115234 0.0 L20.380001068115234 8.999996185302734 L11.379997253417969 8.999996185302734 L11.379997253417969 7.105427357601002E-15 L20.380001068115234 0.0z" stroke="none"/><path fill="#ffffff" fill-opacity="1.0" d="M9.000003814697266 2.6226043701171875E-6 L9.000003814697273 9.00000262260437 L0.0 9.00000262260437 L0.0 2.622604377222615E-6 L9.000003814697266 2.6226043701171875E-6z" stroke="none"/></g><path fill="#ffffff" fill-opacity="1.0" d="M27.820003509521484 37.829999923706055 L27.820003509521484 46.829999923706055 L18.81999969482422 46.829999923706055 L18.81999969482422 37.82999992370606 L27.820003509521484 37.829999923706055z" stroke="none"/><path fill="#ffffff" fill-opacity="1.0" d="M16.439998626708984 37.829999923706055 L16.439998626708984 46.83000183105469 L7.439994812011719 46.83000183105469 L7.439994812011719 37.829999923706055 L16.439998626708984 37.829999923706055z" stroke="none"/><path fill="#ffffff" fill-opacity="1.0" d="M11.130001068115234 30.040000915527344 L12.75 30.040000915527344 L12.75 38.87000274658203 L11.130001068115234 38.87000274658203 L11.130001068115234 30.040000915527344z" stroke="none"/><path fill="#ffffff" fill-opacity="1.0" d="M11.130001068115234 30.040000915527344 L24.130001068115234 30.040000915527344 L24.130001068115234 31.65999984741211 L11.130001068115234 31.65999984741211 L11.130001068115234 30.040000915527344z" stroke="none"/><path fill="#ffffff" fill-opacity="1.0" d="M22.51000213623047 30.040000915527344 L24.130001068115234 30.040000915527344 L24.130001068115234 38.87000274658203 L22.51000213623047 38.87000274658203 L22.51000213623047 30.040000915527344z" stroke="none"/><path fill="#ffffff" fill-opacity="1.0" d="M36.36000061035156 30.040000915527344 L37.97999954223633 30.040000915527344 L37.97999954223633 38.87000274658203 L36.36000061035156 38.87000274658203 L36.36000061035156 30.040000915527344z" stroke="none"/><path fill="#ffffff" fill-opacity="1.0" d="M36.36000061035156 30.040000915527344 L49.36000061035156 30.040000915527344 L49.36000061035156 31.65999984741211 L36.36000061035156 31.65999984741211 L36.36000061035156 30.040000915527344z" stroke="none"/><path fill="#ffffff" fill-opacity="1.0" d="M47.73999786376953 30.040000915527344 L49.36000061035156 30.040000915527344 L49.36000061035156 38.87000274658203 L47.73999786376953 38.87000274658203 L47.73999786376953 30.040000915527344z" stroke="none"/><path fill="#ffffff" fill-opacity="1.0" d="M16.830001831054688 23.740001678466797 L18.450000762939453 23.740001678466797 L18.450000762939453 30.85000228881836 L16.830001831054688 30.85000228881836 L16.830001831054688 23.740001678466797z" stroke="none"/><path fill="#ffffff" fill-opacity="1.0" d="M29.619998931884766 15.270000457763672 L31.23999786376953 15.270000457763672 L31.23999786376953 23.87000274658203 L29.619998931884766 23.87000274658203 L29.619998931884766 15.270000457763672z" stroke="none"/><path fill="#ffffff" fill-opacity="1.0" d="M16.830001831054688 23.060001373291016 L43.70000457763672 23.060001373291016 L43.70000457763672 24.68000030517578 L16.830001831054688 24.68000030517578 L16.830001831054688 23.060001373291016z" stroke="none"/><path fill="#ffffff" fill-opacity="1.0" d="M42.08000183105469 23.740001678466797 L43.70000076293945 23.740001678466797 L43.70000076293945 30.85000228881836 L42.08000183105469 30.85000228881836 L42.08000183105469 23.740001678466797z" stroke="none"/></g><path fill="none" marker-end="url(#id1)" d="M189.5 18.511496223290834 L189.5 88.41999969482424" stroke-width="2.0" stroke-linejoin="round" stroke="#000000"/><g transform="translate(106.06999969482422 223.0200023651123)"><path fill="#9d5025" fill-opacity="1.0" d="M9.119998931884766 2.479999542236328 L43.87999725341797 2.479999542236328 Q53.0 2.479999542236328 53.0 11.600000381469727 L53.0 46.359994888305664 Q53.0 55.479997634887695 43.87999725341797 55.479997634887695 L9.119998931884766 55.479997634887695 Q0.0 55.479997634887695 0.0 46.359994888305664 L0.0 11.600000381469727 Q0.0 2.479999542236328 9.119998931884766 2.479999542236328z" stroke="none"/><path fill="#f58536" fill-opacity="1.0" d="M9.119998931884766 0.0 L43.87999725341797 0.0 Q53.0 0.0 53.0 9.120000839233398 L53.0 43.8799991607666 Q53.0 53.00000190734863 43.87999725341797 53.00000190734863 L9.119998931884766 53.00000190734863 Q0.0 53.00000190734863 0.0 43.8799991607666 L0.0 9.120000839233398 Q0.0 0.0 9.119998931884766 0.0z" stroke="none"/></g><g transform="translate(219.93000030517578 223.0200023651123)"><path fill="#9d5025" fill-opacity="1.0" d="M9.119998931884766 2.479999542236328 L43.87999725341797 2.479999542236328 Q53.0 2.479999542236328 53.0 11.600000381469727 L53.0 46.359994888305664 Q53.0 55.479997634887695 43.87999725341797 55.479997634887695 L9.119998931884766 55.479997634887695 Q0.0 55.479997634887695 0.0 46.359994888305664 L0.0 11.600000381469727 Q0.0 2.479999542236328 9.119998931884766 2.479999542236328z" stroke="none"/><path fill="#f58536" fill-opacity="1.0" d="M9.119998931884766 0.0 L43.87999725341797 0.0 Q53.0 0.0 53.0 9.120000839233398 L53.0 43.8799991607666 Q53.0 53.00000190734863 43.87999725341797 53.00000190734863 L9.119998931884766 53.00000190734863 Q0.0 53.00000190734863 0.0 43.8799991607666 L0.0 9.120000839233398 Q0.0 0.0 9.119998931884766 0.0z" stroke="none"/></g><g transform="translate(34.0 299.0)"><defs><clipPath id="id2"><path d="M0 0 L112.0 0 L112.0 41.0 L0 41.0z"/></clipPath></defs><text font-size="18" clip-path="url(#id2)" text-decoration="none" fill="#000000" font-family="Arial,Arial" font-style="normal" font-weight="normal"><tspan x="8.0" xml:space="preserve" y="26.5" textLength="95.0">ECS cluster</tspan></text></g><g transform="translate(100.06999969482422 278.5)"><defs><clipPath id="id3"><path d="M0 0 L59.0 0 L59.0 29.0 L0 29.0z"/></clipPath></defs><text font-size="18" clip-path="url(#id3)" text-decoration="none" fill="#000000" font-family="Arial,Arial" font-style="normal" font-weight="normal"><tspan x="15.0" xml:space="preserve" y="20.5" textLength="28.0">Old</tspan></text></g><g transform="translate(216.93000030517578 278.5)"><defs><clipPath id="id4"><path d="M0 0 L59.0 0 L59.0 29.0 L0 29.0z"/></clipPath></defs><text font-size="18" clip-path="url(#id4)" text-decoration="none" fill="#000000" font-family="Arial,Arial" font-style="normal" font-weight="normal"><tspan x="11.0" xml:space="preserve" y="20.5" textLength="36.0">New</tspan></text></g><path fill="none" marker-end="url(#id5)" d="M189.5 151.7800003051758 L132.56999969482422 223.0200023651123" stroke-width="2.0" stroke-linejoin="round" stroke="#000000"/><g transform="translate(382.0 216.99999999999997)"><path fill="#ffffff" fill-opacity="1.0" d="M255.00000000000006 118.0 Q255.00000000000006 123.0 250.00000000000006 123.0 L5.0 123.0 Q0.0 123.0 0.0 118.0 L0.0 5.0 Q0.0 0.0 5.0 0.0 L250.00000000000006 0.0 Q255.00000000000006 0.0 255.00000000000006 5.0 L255.00000000000006 118.0 L255.00000000000006 118.0z" stroke-width="1.0" stroke-linejoin="round" stroke="#000000"/><g transform="translate(1.0 1.0)"><defs><clipPath id="id6"><path d="M0 0 L253.0 0 L253.0 121.00000000000003 L0 121.00000000000003z"/></clipPath></defs><text font-size="12" clip-path="url(#id6)" text-decoration="none" fill="#000000" font-family="Arial,Arial" font-style="normal" font-weight="normal"/></g></g><g transform="translate(507.0699996948242 88.41999969482421)"><path fill="#9d5025" fill-opacity="1.0" d="M60.86000061035156 32.93000030517578 Q60.86000061035156 45.53391647338867 51.947662353515625 54.446746826171875 Q43.03489685058594 63.36000061035156 30.43000030517578 63.36000061035156 Q17.82558822631836 63.36000061035156 8.912796020507812 54.44720458984375 Q0.0 45.5344123840332 0.0 32.93000030517578 Q0.0 20.32558822631836 8.912796020507812 11.412796020507812 Q17.82558822631836 2.5 30.43000030517578 2.5 Q43.03511428833008 2.5 51.947662353515625 11.412796020507812 Q60.86000061035156 20.32537841796875 60.86000061035156 32.93000030517578 L60.86000061035156 32.93000030517578z" stroke="none"/><path fill="#f58536" fill-opacity="1.0" d="M60.86000061035156 30.43000030517578 Q60.86000061035156 43.03391647338867 51.947662353515625 51.946746826171875 Q43.03489685058594 60.86000061035156 30.43000030517578 60.86000061035156 Q17.82558822631836 60.86000061035156 8.912796020507812 51.94720458984375 Q0.0 43.0344123840332 0.0 30.43000030517578 Q0.0 17.82558822631836 8.912796020507812 8.912796020507812 Q17.82558822631836 0.0 30.43000030517578 0.0 Q43.03511428833008 0.0 51.947662353515625 8.912796020507812 Q60.86000061035156 17.82537841796875 60.86000061035156 30.43000030517578 L60.86000061035156 30.43000030517578z" stroke="none"/><path fill="#ffffff" fill-opacity="1.0" d="M39.31000328063965 5.850000381469727 L39.31000328063965 16.899999618530273 L21.550003051757812 16.899999618530273 L21.550003051757812 5.850000381469727 L39.31000328063965 5.850000381469727z" stroke="none"/><g transform="translate(32.66999816894531 37.8299994468689)"><path fill="#ffffff" fill-opacity="1.0" d="M20.380001068115234 0.0 L20.380001068115234 8.999996185302734 L11.379997253417969 8.999996185302734 L11.379997253417969 7.105427357601002E-15 L20.380001068115234 0.0z" stroke="none"/><path fill="#ffffff" fill-opacity="1.0" d="M9.000003814697266 2.6226043701171875E-6 L9.000003814697273 9.00000262260437 L0.0 9.00000262260437 L0.0 2.622604377222615E-6 L9.000003814697266 2.6226043701171875E-6z" stroke="none"/></g><path fill="#ffffff" fill-opacity="1.0" d="M27.820003509521484 37.829999923706055 L27.820003509521484 46.829999923706055 L18.81999969482422 46.829999923706055 L18.81999969482422 37.82999992370606 L27.820003509521484 37.829999923706055z" stroke="none"/><path fill="#ffffff" fill-opacity="1.0" d="M16.439998626708984 37.829999923706055 L16.439998626708984 46.83000183105469 L7.439994812011719 46.83000183105469 L7.439994812011719 37.829999923706055 L16.439998626708984 37.829999923706055z" stroke="none"/><path fill="#ffffff" fill-opacity="1.0" d="M11.130001068115234 30.040000915527344 L12.75 30.040000915527344 L12.75 38.87000274658203 L11.130001068115234 38.87000274658203 L11.130001068115234 30.040000915527344z" stroke="none"/><path fill="#ffffff" fill-opacity="1.0" d="M11.130001068115234 30.040000915527344 L24.130001068115234 30.040000915527344 L24.130001068115234 31.65999984741211 L11.130001068115234 31.65999984741211 L11.130001068115234 30.040000915527344z" stroke="none"/><path fill="#ffffff" fill-opacity="1.0" d="M22.51000213623047 30.040000915527344 L24.130001068115234 30.040000915527344 L24.130001068115234 38.87000274658203 L22.51000213623047 38.87000274658203 L22.51000213623047 30.040000915527344z" stroke="none"/><path fill="#ffffff" fill-opacity="1.0" d="M36.36000061035156 30.040000915527344 L37.97999954223633 30.040000915527344 L37.97999954223633 38.87000274658203 L36.36000061035156 38.87000274658203 L36.36000061035156 30.040000915527344z" stroke="none"/><path fill="#ffffff" fill-opacity="1.0" d="M36.36000061035156 30.040000915527344 L49.36000061035156 30.040000915527344 L49.36000061035156 31.65999984741211 L36.36000061035156 31.65999984741211 L36.36000061035156 30.040000915527344z" stroke="none"/><path fill="#ffffff" fill-opacity="1.0" d="M47.73999786376953 30.040000915527344 L49.36000061035156 30.040000915527344 L49.36000061035156 38.87000274658203 L47.73999786376953 38.87000274658203 L47.73999786376953 30.040000915527344z" stroke="none"/><path fill="#ffffff" fill-opacity="1.0" d="M16.830001831054688 23.740001678466797 L18.450000762939453 23.740001678466797 L18.450000762939453 30.85000228881836 L16.830001831054688 30.85000228881836 L16.830001831054688 23.740001678466797z" stroke="none"/><path fill="#ffffff" fill-opacity="1.0" d="M29.619998931884766 15.270000457763672 L31.23999786376953 15.270000457763672 L31.23999786376953 23.87000274658203 L29.619998931884766 23.87000274658203 L29.619998931884766 15.270000457763672z" stroke="none"/><path fill="#ffffff" fill-opacity="1.0" d="M16.830001831054688 23.060001373291016 L43.70000457763672 23.060001373291016 L43.70000457763672 24.68000030517578 L16.830001831054688 24.68000030517578 L16.830001831054688 23.060001373291016z" stroke="none"/><path fill="#ffffff" fill-opacity="1.0" d="M42.08000183105469 23.740001678466797 L43.70000076293945 23.740001678466797 L43.70000076293945 30.85000228881836 L42.08000183105469 30.85000228881836 L42.08000183105469 23.740001678466797z" stroke="none"/></g><path fill="none" marker-end="url(#id7)" d="M537.5 18.511496223290806 L537.5 88.41999969482421" stroke-width="2.0" stroke-linejoin="round" stroke="#000000"/><g transform="translate(454.0699996948242 223.02000236511228)"><path fill="#9d5025" fill-opacity="1.0" d="M9.119998931884766 2.479999542236328 L43.87999725341797 2.479999542236328 Q53.0 2.479999542236328 53.0 11.600000381469727 L53.0 46.359994888305664 Q53.0 55.479997634887695 43.87999725341797 55.479997634887695 L9.119998931884766 55.479997634887695 Q0.0 55.479997634887695 0.0 46.359994888305664 L0.0 11.600000381469727 Q0.0 2.479999542236328 9.119998931884766 2.479999542236328z" stroke="none"/><path fill="#f58536" fill-opacity="1.0" d="M9.119998931884766 0.0 L43.87999725341797 0.0 Q53.0 0.0 53.0 9.120000839233398 L53.0 43.8799991607666 Q53.0 53.00000190734863 43.87999725341797 53.00000190734863 L9.119998931884766 53.00000190734863 Q0.0 53.00000190734863 0.0 43.8799991607666 L0.0 9.120000839233398 Q0.0 0.0 9.119998931884766 0.0z" stroke="none"/></g><g transform="translate(567.9300003051758 223.02000236511228)"><path fill="#9d5025" fill-opacity="1.0" d="M9.119998931884766 2.479999542236328 L43.87999725341797 2.479999542236328 Q53.0 2.479999542236328 53.0 11.600000381469727 L53.0 46.359994888305664 Q53.0 55.479997634887695 43.87999725341797 55.479997634887695 L9.119998931884766 55.479997634887695 Q0.0 55.479997634887695 0.0 46.359994888305664 L0.0 11.600000381469727 Q0.0 2.479999542236328 9.119998931884766 2.479999542236328z" stroke="none"/><path fill="#f58536" fill-opacity="1.0" d="M9.119998931884766 0.0 L43.87999725341797 0.0 Q53.0 0.0 53.0 9.120000839233398 L53.0 43.8799991607666 Q53.0 53.00000190734863 43.87999725341797 53.00000190734863 L9.119998931884766 53.00000190734863 Q0.0 53.00000190734863 0.0 43.8799991607666 L0.0 9.120000839233398 Q0.0 0.0 9.119998931884766 0.0z" stroke="none"/></g><g transform="translate(382.0 299.0)"><defs><clipPath id="id8"><path d="M0 0 L112.0 0 L112.0 41.0 L0 41.0z"/></clipPath></defs><text font-size="18" clip-path="url(#id8)" text-decoration="none" fill="#000000" font-family="Arial,Arial" font-style="normal" font-weight="normal"><tspan x="8.0" xml:space="preserve" y="26.5" textLength="95.0">ECS cluster</tspan></text></g><g transform="translate(448.0699996948242 278.5)"><defs><clipPath id="id9"><path d="M0 0 L59.0 0 L59.0 29.0 L0 29.0z"/></clipPath></defs><text font-size="18" clip-path="url(#id9)" text-decoration="none" fill="#000000" font-family="Arial,Arial" font-style="normal" font-weight="normal"><tspan x="15.0" xml:space="preserve" y="20.5" textLength="28.0">Old</tspan></text></g><g transform="translate(564.9300003051758 278.5)"><defs><clipPath id="id10"><path d="M0 0 L59.0 0 L59.0 29.0 L0 29.0z"/></clipPath></defs><text font-size="18" clip-path="url(#id10)" text-decoration="none" fill="#000000" font-family="Arial,Arial" font-style="normal" font-weight="normal"><tspan x="11.0" xml:space="preserve" y="20.5" textLength="36.0">New</tspan></text></g><path fill="none" marker-end="url(#id11)" d="M537.5 151.78000030517578 L594.4300003051758 223.02000236511228" stroke-width="2.0" stroke-linejoin="round" stroke="#000000"/><g transform="translate(307.0 141.0)"><path fill="#666666" fill-opacity="1.0" d="M59.0 21.24 L37.0 42.48 L37.0 32.48 L0.0 32.48 L0.0 10.0 L37.0 10.0 L37.0 0.0 L59.0 21.24z" stroke="none"/><g transform="translate(0.0 10.0)"><defs><clipPath id="id12"><path d="M0 0 L49.0 0 L49.0 22.480000000000018 L0 22.480000000000018z"/></clipPath></defs><text font-size="10" clip-path="url(#id12)" text-decoration="none" fill="#000000" font-family="Arial,Arial" font-style="normal" font-weight="normal"/></g></g></g></svg>